<?xml version="1.0" encoding="utf-8"?>
<!-- Generator: Adobe Illustrator 24.0.1, SVG Export Plug-In . SVG Version: 6.00 Build 0)  -->
<svg version="1.1" id="Laag_1" xmlns="http://www.w3.org/2000/svg" xmlns:xlink="http://www.w3.org/1999/xlink" x="0px" y="0px"
	 viewBox="0 0 53.86 54.63" style="enable-background:new 0 0 53.86 54.63;" xml:space="preserve">
<style type="text/css">
	.st0{fill:#006633;}
	.st1{fill:#006633;stroke:#BE1622;stroke-width:0.35;stroke-miterlimit:10;}
	.st2{fill:#BE1622;}
</style>
<g>
	<g>
		<g>
			<g>
				<g>
					<g>
						<path class="st0" d="M33.11,21.37L20.04,33.42l-2.2-19.32L33.11,21.37 M33.22,21.35L17.76,14l2.23,19.55L33.22,21.35
							L33.22,21.35z"/>
						<path class="st0" d="M39.34,37.27l-19.22-3.76L33.2,21.46L39.34,37.27 M39.43,37.36l-6.21-16.01l-13.23,12.2L39.43,37.36
							L39.43,37.36z"/>
						<path class="st0" d="M25.16,48.82l-14.13-6.49l8.93-8.67L25.16,48.82 M25.26,48.93L25.26,48.93L25.26,48.93z M25.26,48.93
							l-5.27-15.39l-9.07,8.8L25.26,48.93L25.26,48.93z"/>
						<path class="st0" d="M39.29,37.39l-14,11.44l-5.21-15.2L39.29,37.39 M39.43,37.36l-19.44-3.81l5.27,15.39L39.43,37.36
							L39.43,37.36z"/>
						<path class="st0" d="M19.88,33.57l-8.93,8.67L5.27,27.12L19.88,33.57 M19.99,33.55L5.16,27l5.77,15.34L19.99,33.55
							L19.99,33.55z"/>
						<path class="st0" d="M10.8,42.2l-7.02-4.38l1.4-10.56L10.8,42.2 M10.92,42.35L5.16,27L3.72,37.85L10.92,42.35L10.92,42.35z"/>
						<path class="st0" d="M19.92,33.45L5.26,26.98l12.45-12.85L19.92,33.45 M19.99,33.55L19.99,33.55L19.99,33.55z M19.99,33.55
							L17.76,14L5.16,27L19.99,33.55L19.99,33.55z"/>
						<path class="st1" d="M34.72,7.24L17.76,14l15.46,7.35L34.72,7.24L34.72,7.24z M34.65,7.34l-1.48,13.92l-15.26-7.25L34.65,7.34
							"/>
						<path class="st0" d="M47.42,20.84l-14.13,0.45l1.48-13.9L47.42,20.84 M47.56,20.89L34.78,7.26l-1.5,14.11L47.56,20.89
							L47.56,20.89z"/>
						<path class="st0" d="M50.73,36.26l-11.19,1.02l8-16.21L50.73,36.26 M50.8,36.32l-3.25-15.42l-8.12,16.46L50.8,36.32
							L50.8,36.32z"/>
						<path class="st0" d="M47.46,20.96L39.44,37.2l-6.13-15.8L47.46,20.96 M47.56,20.89l-14.34,0.46l6.21,16.01L47.56,20.89
							L47.56,20.89z"/>
						<path class="st0" d="M47.47,20.71L34.9,7.34l11.08,2.18L47.47,20.71 M47.56,20.89L46.03,9.47L34.72,7.24L47.56,20.89
							L47.56,20.89z"/>
						<path class="st0" d="M52.48,22.55l-4.87-1.7L46.14,9.82L52.48,22.55 M52.6,22.65L46.03,9.47l1.53,11.43L52.6,22.65L52.6,22.65
							z"/>
						<path class="st0" d="M52.53,22.7l-1.74,13.26l-3.15-14.97L52.53,22.7 M52.6,22.65l-5.04-1.76l3.25,15.42L52.6,22.65
							L52.6,22.65z"/>
						<path class="st0" d="M50.66,36.39L40.59,47.73L39.5,37.41L50.66,36.39 M50.8,36.32l-11.37,1.04l1.11,10.52L50.8,36.32
							L50.8,36.32z"/>
						<path class="st0" d="M50.22,37.07l-5.84,8.57l-3.54,2L50.22,37.07 M50.8,36.32L40.54,47.87l3.88-2.18L50.8,36.32L50.8,36.32z"
							/>
						<path class="st0" d="M40.48,47.82l-15.03,1.04l13.94-11.39L40.48,47.82 M40.54,47.87l-1.11-10.52L25.26,48.93L40.54,47.87
							L40.54,47.87z"/>
						<path class="st0" d="M40.23,47.96l-9.61,4.62l-5.18-3.59L40.23,47.96 M40.54,47.87l-15.28,1.06l5.36,3.71L40.54,47.87
							L40.54,47.87z"/>
						<path class="st0" d="M30.36,52.54l-15.13-2.57L25.25,49L30.36,52.54 M30.62,52.64l-5.36-3.71l-10.5,1.02L30.62,52.64
							L30.62,52.64z"/>
						<path class="st0" d="M25.03,48.9L14.8,49.89l-3.74-7.41L25.03,48.9 M25.26,48.93l-14.34-6.59l3.84,7.61L25.26,48.93
							L25.26,48.93z"/>
						<path class="st0" d="M14.51,49.58L4.07,38.14l6.81,4.25L14.51,49.58 M14.76,49.95L14.76,49.95L14.76,49.95z M14.76,49.95
							l-3.84-7.61l-7.2-4.5L14.76,49.95L14.76,49.95z"/>
						<path class="st0" d="M5.09,27.02L3.73,37.34L2.09,22.16L5.09,27.02 M5.16,27L2,21.9l1.72,15.95L5.16,27L5.16,27z"/>
						<path class="st0" d="M7.26,12.65L5.12,26.83L2.07,21.9L7.26,12.65 M7.37,12.33L2,21.9L5.16,27L7.37,12.33L7.37,12.33z"/>
						<path class="st0" d="M17.64,14.04L5.25,26.83L7.42,12.4L17.64,14.04 M17.76,14L7.37,12.33L5.16,27L17.76,14L17.76,14z"/>
						<path class="st0" d="M19.69,3.11l-1.98,10.83L7.52,12.29L19.69,3.11 M19.78,2.96L7.37,12.33L17.76,14L19.78,2.96L19.78,2.96z"
							/>
						<path class="st0" d="M18.82,3.61L7.69,12l2.48-3.21L18.82,3.61 M19.78,2.96l-9.65,5.79l-2.76,3.58L19.78,2.96L19.78,2.96z"/>
						<path class="st0" d="M34.72,7.24L19.78,2.96L17.9,13.94l16.85-6.77L34.72,7.24z M17.9,13.94l1.93-10.9l14.71,4.21 M34.59,7.29
							"/>
						<path class="st0" d="M34.64,7.16L20.13,3l13.42-0.94L34.64,7.16 M34.72,7.24L33.6,2L19.78,2.96L34.72,7.24L34.72,7.24z"/>
						<path class="st0" d="M45.7,9.34L34.77,7.19l-1.09-5.07L45.7,9.34 M46.03,9.47L33.6,2l1.13,5.25L46.03,9.47L46.03,9.47z"/>
					</g>
					
						<ellipse transform="matrix(0.247 -0.969 0.969 0.247 -17.4562 44.6343)" class="st0" cx="19.99" cy="33.55" rx="0.73" ry="0.73"/>
					<path class="st0" d="M40.17,37.3c0.03,0.4-0.27,0.76-0.68,0.79c-0.4,0.03-0.76-0.27-0.79-0.68c-0.03-0.4,0.27-0.76,0.68-0.79
						C39.78,36.59,40.13,36.9,40.17,37.3z"/>
					<path class="st0" d="M25.99,48.88c0.03,0.4-0.27,0.76-0.68,0.79c-0.4,0.03-0.76-0.27-0.79-0.68c-0.03-0.4,0.27-0.76,0.68-0.79
						C25.61,48.17,25.96,48.48,25.99,48.88z"/>
					<path class="st0" d="M11.66,42.29c0.03,0.4-0.27,0.76-0.68,0.79c-0.4,0.03-0.76-0.27-0.79-0.68c-0.03-0.4,0.27-0.76,0.68-0.79
						C11.27,41.58,11.62,41.89,11.66,42.29z"/>
					<path class="st0" d="M25.99,48.88c0.03,0.4-0.27,0.76-0.68,0.79c-0.4,0.03-0.76-0.27-0.79-0.68c-0.03-0.4,0.27-0.76,0.68-0.79
						C25.61,48.17,25.96,48.48,25.99,48.88z"/>
					<path class="st0" d="M40.17,37.3c0.03,0.4-0.27,0.76-0.68,0.79c-0.4,0.03-0.76-0.27-0.79-0.68c-0.03-0.4,0.27-0.76,0.68-0.79
						C39.78,36.59,40.13,36.9,40.17,37.3z"/>
					<path class="st0" d="M5.89,26.95c0.03,0.4-0.27,0.76-0.68,0.79c-0.4,0.03-0.76-0.27-0.79-0.68C4.4,26.66,4.7,26.3,5.1,26.27
						C5.51,26.24,5.86,26.55,5.89,26.95z"/>
					<path class="st0" d="M11.66,42.29c0.03,0.4-0.27,0.76-0.68,0.79c-0.4,0.03-0.76-0.27-0.79-0.68c-0.03-0.4,0.27-0.76,0.68-0.79
						C11.27,41.58,11.62,41.89,11.66,42.29z"/>
					<path class="st0" d="M11.66,42.29c0.03,0.4-0.27,0.76-0.68,0.79c-0.4,0.03-0.76-0.27-0.79-0.68c-0.03-0.4,0.27-0.76,0.68-0.79
						C11.27,41.58,11.62,41.89,11.66,42.29z"/>
					
						<ellipse transform="matrix(0.1856 -0.9826 0.9826 0.1856 -34.1623 34.4829)" class="st0" cx="3.72" cy="37.85" rx="0.73" ry="0.73"/>
					<path class="st0" d="M35.45,7.19c0.03,0.4-0.27,0.76-0.68,0.79c-0.4,0.03-0.76-0.27-0.79-0.68c-0.03-0.4,0.27-0.76,0.68-0.79
						C35.07,6.48,35.42,6.79,35.45,7.19z"/>
					<path class="st0" d="M35.45,7.19c0.03,0.4-0.27,0.76-0.68,0.79c-0.4,0.03-0.76-0.27-0.79-0.68c-0.03-0.4,0.27-0.76,0.68-0.79
						C35.07,6.48,35.42,6.79,35.45,7.19z"/>
					<path class="st0" d="M48.29,20.84c0.03,0.4-0.27,0.76-0.68,0.79c-0.4,0.03-0.76-0.27-0.79-0.68c-0.03-0.4,0.27-0.76,0.68-0.79
						C47.91,20.13,48.26,20.43,48.29,20.84z"/>
					<path class="st0" d="M51.54,36.26c0.03,0.4-0.27,0.76-0.68,0.79c-0.4,0.03-0.76-0.27-0.79-0.68c-0.03-0.4,0.27-0.76,0.68-0.79
						C51.15,35.55,51.5,35.86,51.54,36.26z"/>
					
						<ellipse transform="matrix(0.1856 -0.9826 0.9826 0.1856 28.1865 52.9375)" class="st0" cx="46.03" cy="9.47" rx="0.73" ry="0.73"/>
					<path class="st0" d="M53.33,22.6c0.03,0.4-0.27,0.76-0.68,0.79c-0.4,0.03-0.76-0.27-0.79-0.68c-0.03-0.4,0.27-0.76,0.68-0.79
						C52.95,21.89,53.3,22.19,53.33,22.6z"/>
					<path class="st0" d="M53.33,22.6c0.03,0.4-0.27,0.76-0.68,0.79c-0.4,0.03-0.76-0.27-0.79-0.68c-0.03-0.4,0.27-0.76,0.68-0.79
						C52.95,21.89,53.3,22.19,53.33,22.6z"/>
					
						<ellipse transform="matrix(0.1266 -0.9919 0.9919 0.1266 -12.0783 82.0288)" class="st0" cx="40.54" cy="47.87" rx="0.73" ry="0.73"/>
					<path class="st0" d="M45.15,45.63c0.03,0.4-0.27,0.76-0.68,0.79c-0.4,0.03-0.76-0.27-0.79-0.68c-0.03-0.4,0.27-0.76,0.68-0.79
						C44.77,44.93,45.12,45.23,45.15,45.63z"/>
					<path class="st0" d="M25.99,48.88c0.03,0.4-0.27,0.76-0.68,0.79c-0.4,0.03-0.76-0.27-0.79-0.68c-0.03-0.4,0.27-0.76,0.68-0.79
						C25.61,48.17,25.96,48.48,25.99,48.88z"/>
					<path class="st0" d="M25.99,48.88c0.03,0.4-0.27,0.76-0.68,0.79c-0.4,0.03-0.76-0.27-0.79-0.68c-0.03-0.4,0.27-0.76,0.68-0.79
						C25.61,48.17,25.96,48.48,25.99,48.88z"/>
					<path class="st0" d="M31.35,52.59c0.03,0.4-0.27,0.76-0.68,0.79c-0.4,0.03-0.76-0.27-0.79-0.68c-0.03-0.4,0.27-0.76,0.68-0.79
						C30.97,51.88,31.32,52.18,31.35,52.59z"/>
					<path class="st0" d="M25.99,48.88c0.03,0.4-0.27,0.76-0.68,0.79c-0.4,0.03-0.76-0.27-0.79-0.68c-0.03-0.4,0.27-0.76,0.68-0.79
						C25.61,48.17,25.96,48.48,25.99,48.88z"/>
					<path class="st0" d="M15.49,49.9c0.03,0.4-0.27,0.76-0.68,0.79c-0.4,0.03-0.76-0.27-0.79-0.68c-0.03-0.4,0.27-0.76,0.68-0.79
						C15.11,49.19,15.46,49.49,15.49,49.9z"/>
					<path class="st0" d="M25.99,48.88c0.03,0.4-0.27,0.76-0.68,0.79c-0.4,0.03-0.76-0.27-0.79-0.68c-0.03-0.4,0.27-0.76,0.68-0.79
						C25.61,48.17,25.96,48.48,25.99,48.88z"/>
					<path class="st0" d="M11.66,42.29c0.03,0.4-0.27,0.76-0.68,0.79c-0.4,0.03-0.76-0.27-0.79-0.68c-0.03-0.4,0.27-0.76,0.68-0.79
						C11.27,41.58,11.62,41.89,11.66,42.29z"/>
					<path class="st0" d="M11.66,42.29c0.03,0.4-0.27,0.76-0.68,0.79c-0.4,0.03-0.76-0.27-0.79-0.68c-0.03-0.4,0.27-0.76,0.68-0.79
						C11.27,41.58,11.62,41.89,11.66,42.29z"/>
					<path class="st0" d="M2.73,21.84c0.03,0.4-0.27,0.76-0.68,0.79c-0.4,0.03-0.76-0.27-0.79-0.68c-0.03-0.4,0.27-0.76,0.68-0.79
						C2.35,21.14,2.7,21.44,2.73,21.84z"/>
					<path class="st0" d="M8.1,12.27c0.03,0.4-0.27,0.76-0.68,0.79c-0.4,0.03-0.76-0.27-0.79-0.68c-0.03-0.4,0.27-0.76,0.68-0.79
						C7.72,11.56,8.07,11.87,8.1,12.27z"/>
					<path class="st0" d="M8.1,12.27c0.03,0.4-0.27,0.76-0.68,0.79c-0.4,0.03-0.76-0.27-0.79-0.68c-0.03-0.4,0.27-0.76,0.68-0.79
						C7.72,11.56,8.07,11.87,8.1,12.27z"/>
					
						<ellipse transform="matrix(0.2233 -0.9748 0.9748 0.2233 12.4731 21.5775)" class="st0" cx="19.78" cy="2.96" rx="0.73" ry="0.73"/>
					<path class="st0" d="M8.1,12.27c0.03,0.4-0.27,0.76-0.68,0.79c-0.4,0.03-0.76-0.27-0.79-0.68c-0.03-0.4,0.27-0.76,0.68-0.79
						C7.72,11.56,8.07,11.87,8.1,12.27z"/>
					<path class="st0" d="M8.1,12.27c0.03,0.4-0.27,0.76-0.68,0.79c-0.4,0.03-0.76-0.27-0.79-0.68c-0.03-0.4,0.27-0.76,0.68-0.79
						C7.72,11.56,8.07,11.87,8.1,12.27z"/>
					<path class="st0" d="M10.86,8.69c0.03,0.4-0.27,0.76-0.68,0.79C9.78,9.51,9.43,9.21,9.4,8.8c-0.03-0.4,0.27-0.76,0.68-0.79
						C10.48,7.99,10.83,8.29,10.86,8.69z"/>
					<path class="st0" d="M34.33,1.94c0.03,0.4-0.27,0.76-0.68,0.79c-0.4,0.03-0.76-0.27-0.79-0.68c-0.03-0.4,0.27-0.76,0.68-0.79
						C33.94,1.24,34.3,1.54,34.33,1.94z"/>
				</g>
				<g>
					<g>
						<path class="st0" d="M30.75,19.55l-8.48,16.63l-9.21-18.21L30.75,19.55 M30.79,19.52l-17.77-1.59l9.25,18.3L30.79,19.52
							L30.79,19.52z"/>
						<path class="st0" d="M42.6,32.9l-20.29,3.3l8.48-16.63L42.6,32.9 M42.65,32.92l-11.87-13.4l-8.52,16.71L42.65,32.92
							L42.65,32.92z"/>
						<path class="st0" d="M32.94,49.34l-16.3-1.24l5.64-11.81L32.94,49.34 M32.99,49.37L32.99,49.37L32.99,49.37z M32.99,49.37
							L22.27,36.24l-5.68,11.88L32.99,49.37L32.99,49.37z"/>
						<path class="st0" d="M42.6,32.95l-9.61,16.37L22.32,36.25L42.6,32.95 M42.65,32.92l-20.38,3.32l10.72,13.13L42.65,32.92
							L42.65,32.92z"/>
						<path class="st0" d="M22.23,36.26l-5.64,11.81L5.46,35.24L22.23,36.26 M22.27,36.24L5.4,35.21l11.19,12.91L22.27,36.24
							L22.27,36.24z"/>
						<path class="st0" d="M16.53,48.08l-8.58-1.77L5.45,35.3L16.53,48.08 M16.59,48.12L5.4,35.21l2.52,11.12L16.59,48.12
							L16.59,48.12z"/>
						<path class="st0" d="M22.23,36.21L5.44,35.19L13.02,18L22.23,36.21 M22.27,36.24L22.27,36.24L22.27,36.24z M22.27,36.24
							l-9.25-18.3L5.4,35.21L22.27,36.24L22.27,36.24z"/>
						<path class="st0" d="M30.75,19.49l-17.68-1.58L27.13,5.24L30.75,19.49 M30.79,19.52L30.79,19.52L30.79,19.52z M30.79,19.52
							L27.15,5.19L13.02,17.94L30.79,19.52L30.79,19.52z"/>
						<path class="st0" d="M44.57,13.88l-13.77,5.6L27.19,5.24L44.57,13.88 M44.63,13.89L27.15,5.19l3.64,14.33L44.63,13.89
							L44.63,13.89z"/>
						<path class="st0" d="M53.35,27.78l-10.67,5.1l1.97-18.91L53.35,27.78 M53.39,27.79l-8.76-13.9l-1.98,19.03L53.39,27.79
							L53.39,27.79z"/>
						<path class="st0" d="M44.63,13.89l-13.85,5.64l11.87,13.4L44.63,13.89L44.63,13.89z M44.6,13.93l-1.97,18.93l-11.8-13.33
							L44.6,13.93"/>
						<path class="st0" d="M44.58,13.83L27.23,5.21L38.99,3.3L44.58,13.83 M44.63,13.89L39,3.27L27.15,5.19L44.63,13.89L44.63,13.89
							z"/>
						<path class="st0" d="M50.14,13.76l-5.49,0.1L39.1,3.39L50.14,13.76 M50.2,13.78L39,3.27l5.63,10.62L50.2,13.78L50.2,13.78z"/>
						<path class="st0" d="M53.33,27.65l-8.65-13.74l5.5-0.1L53.33,27.65 M53.39,27.79l-3.19-14l-5.57,0.11L53.39,27.79L53.39,27.79
							z"/>
						<path class="st0" d="M53.34,27.84l-5.8,14.9l-4.86-9.8L53.34,27.84 M53.39,27.79l-10.74,5.13l4.89,9.88L53.39,27.79
							L53.39,27.79z"/>
						<path class="st0" d="M53.27,28.17l-2.75,11.08l-2.89,3.42L53.27,28.17 M53.39,27.79L47.55,42.8l3-3.54L53.39,27.79
							L53.39,27.79z"/>
						<path class="st0" d="M47.51,42.78l-14.46,6.53l9.6-16.34L47.51,42.78 M47.55,42.8l-4.89-9.88l-9.66,16.45L47.55,42.8
							L47.55,42.8z"/>
						<path class="st0" d="M47.44,42.87l-7.87,8.15l-6.49-1.66L47.44,42.87 M47.55,42.8l-14.55,6.57l6.58,1.69L47.55,42.8
							L47.55,42.8z"/>
						<path class="st0" d="M39.45,51.05L23.28,54.1L33,49.39L39.45,51.05 M39.57,51.05l-6.58-1.69l-9.89,4.8L39.57,51.05
							L39.57,51.05z"/>
						<path class="st0" d="M32.9,49.38l-9.79,4.75l-6.44-5.98L32.9,49.38 M32.99,49.37l-16.4-1.25l6.51,6.05L32.99,49.37
							L32.99,49.37z"/>
						<path class="st0" d="M22.95,54.05L8.1,46.39l8.48,1.75L22.95,54.05 M23.1,54.16L23.1,54.16L23.1,54.16z M23.1,54.16
							l-6.51-6.05l-8.67-1.79L23.1,54.16L23.1,54.16z"/>
						<path class="st0" d="M7.85,46.13L0.55,31.45l4.84,3.77L7.85,46.13 M7.93,46.33L5.4,35.21l-4.93-3.85L7.93,46.33L7.93,46.33z"
							/>
						<path class="st0" d="M5.37,35.15l-4.87-3.8L2.25,20.2L5.37,35.15 M5.4,35.21L2.25,20.06l-1.78,11.3L5.4,35.21L5.4,35.21z"/>
						<path class="st0" d="M12.97,17.97L5.41,35.13L2.28,20.08L12.97,17.97 M13.02,17.94L2.25,20.06L5.4,35.21L13.02,17.94
							L13.02,17.94z"/>
						<path class="st0" d="M12.99,17.92L2.3,20.03l8.67-13.54L12.99,17.92 M13.02,17.94L10.99,6.42L2.25,20.06L13.02,17.94
							L13.02,17.94z"/>
						<path class="st0" d="M10.71,6.81L2.33,19.89l1.35-4.31L10.71,6.81 M10.99,6.42l-7.33,9.15l-1.41,4.5L10.99,6.42L10.99,6.42z"
							/>
						<path class="st0" d="M27.15,5.19L10.99,6.42l2.03,11.52L27.15,5.19L27.15,5.19z M27.07,5.22L13.03,17.89L11.02,6.44
							L27.07,5.22"/>
						<path class="st0" d="M27.1,5.17L11.13,6.38l13.01-5.88L27.1,5.17 M27.15,5.19l-3-4.72L10.99,6.42L27.15,5.19L27.15,5.19z"/>
						<path class="st0" d="M38.86,3.27l-11.7,1.9L24.2,0.51L38.86,3.27 M39,3.27l-14.85-2.8l3,4.72L39,3.27L39,3.27z"/>
					</g>
					<g>
						<path class="st0" d="M22.44,36.68c-0.24,0.09-0.52-0.03-0.61-0.28c-0.09-0.24,0.03-0.52,0.28-0.61
							c0.24-0.09,0.52,0.03,0.61,0.28C22.81,36.32,22.68,36.59,22.44,36.68z"/>
						<path class="st0" d="M13.18,18.38c-0.24,0.09-0.52-0.03-0.61-0.28s0.03-0.52,0.28-0.61c0.24-0.09,0.52,0.03,0.61,0.28
							C13.55,18.02,13.43,18.29,13.18,18.38z"/>
						<path class="st0" d="M30.95,19.97c-0.24,0.09-0.52-0.03-0.61-0.28c-0.09-0.24,0.03-0.52,0.28-0.61s0.52,0.03,0.61,0.28
							C31.32,19.6,31.2,19.88,30.95,19.97z"/>
						<path class="st0" d="M30.95,19.97c-0.24,0.09-0.52-0.03-0.61-0.28c-0.09-0.24,0.03-0.52,0.28-0.61s0.52,0.03,0.61,0.28
							C31.32,19.6,31.2,19.88,30.95,19.97z"/>
						<path class="st0" d="M22.44,36.68c-0.24,0.09-0.52-0.03-0.61-0.28c-0.09-0.24,0.03-0.52,0.28-0.61
							c0.24-0.09,0.52,0.03,0.61,0.28C22.81,36.32,22.68,36.59,22.44,36.68z"/>
						<path class="st0" d="M42.82,33.36c-0.24,0.09-0.52-0.03-0.61-0.28s0.03-0.52,0.28-0.61c0.24-0.09,0.52,0.03,0.61,0.28
							C43.19,33,43.06,33.27,42.82,33.36z"/>
						<path class="st0" d="M22.44,36.68c-0.24,0.09-0.52-0.03-0.61-0.28c-0.09-0.24,0.03-0.52,0.28-0.61
							c0.24-0.09,0.52,0.03,0.61,0.28C22.81,36.32,22.68,36.59,22.44,36.68z"/>
						<path class="st0" d="M33.16,49.81c-0.24,0.09-0.52-0.03-0.61-0.28c-0.09-0.24,0.03-0.52,0.28-0.61
							c0.24-0.09,0.52,0.03,0.61,0.28C33.53,49.45,33.4,49.72,33.16,49.81z"/>
						<path class="st0" d="M16.76,48.56c-0.24,0.09-0.52-0.03-0.61-0.28c-0.09-0.24,0.03-0.52,0.28-0.61
							c0.24-0.09,0.52,0.03,0.61,0.28C17.13,48.2,17,48.47,16.76,48.56z"/>
						<path class="st0" d="M33.16,49.81c-0.24,0.09-0.52-0.03-0.61-0.28c-0.09-0.24,0.03-0.52,0.28-0.61
							c0.24-0.09,0.52,0.03,0.61,0.28C33.53,49.45,33.4,49.72,33.16,49.81z"/>
						<path class="st0" d="M22.44,36.68c-0.24,0.09-0.52-0.03-0.61-0.28c-0.09-0.24,0.03-0.52,0.28-0.61
							c0.24-0.09,0.52,0.03,0.61,0.28C22.81,36.32,22.68,36.59,22.44,36.68z"/>
						<path class="st0" d="M42.82,33.36c-0.24,0.09-0.52-0.03-0.61-0.28s0.03-0.52,0.28-0.61c0.24-0.09,0.52,0.03,0.61,0.28
							C43.19,33,43.06,33.27,42.82,33.36z"/>
						<path class="st0" d="M22.44,36.68c-0.24,0.09-0.52-0.03-0.61-0.28c-0.09-0.24,0.03-0.52,0.28-0.61
							c0.24-0.09,0.52,0.03,0.61,0.28C22.81,36.32,22.68,36.59,22.44,36.68z"/>
						<path class="st0" d="M5.57,35.65c-0.24,0.09-0.52-0.03-0.61-0.28C4.87,35.13,5,34.86,5.24,34.77
							c0.24-0.09,0.52,0.03,0.61,0.28C5.94,35.29,5.81,35.56,5.57,35.65z"/>
						<path class="st0" d="M16.76,48.56c-0.24,0.09-0.52-0.03-0.61-0.28c-0.09-0.24,0.03-0.52,0.28-0.61
							c0.24-0.09,0.52,0.03,0.61,0.28C17.13,48.2,17,48.47,16.76,48.56z"/>
						<path class="st0" d="M16.76,48.56c-0.24,0.09-0.52-0.03-0.61-0.28c-0.09-0.24,0.03-0.52,0.28-0.61
							c0.24-0.09,0.52,0.03,0.61,0.28C17.13,48.2,17,48.47,16.76,48.56z"/>
						<path class="st0" d="M5.57,35.65c-0.24,0.09-0.52-0.03-0.61-0.28C4.87,35.13,5,34.86,5.24,34.77
							c0.24-0.09,0.52,0.03,0.61,0.28C5.94,35.29,5.81,35.56,5.57,35.65z"/>
						<path class="st0" d="M8.09,46.77c-0.24,0.09-0.52-0.03-0.61-0.28c-0.09-0.24,0.03-0.52,0.28-0.61
							c0.24-0.09,0.52,0.03,0.61,0.28C8.46,46.41,8.34,46.68,8.09,46.77z"/>
						<path class="st0" d="M22.44,36.68c-0.24,0.09-0.52-0.03-0.61-0.28c-0.09-0.24,0.03-0.52,0.28-0.61
							c0.24-0.09,0.52,0.03,0.61,0.28C22.81,36.32,22.68,36.59,22.44,36.68z"/>
						<path class="st0" d="M5.57,35.65c-0.24,0.09-0.52-0.03-0.61-0.28C4.87,35.13,5,34.86,5.24,34.77
							c0.24-0.09,0.52,0.03,0.61,0.28C5.94,35.29,5.81,35.56,5.57,35.65z"/>
						<path class="st0" d="M13.18,18.38c-0.24,0.09-0.52-0.03-0.61-0.28s0.03-0.52,0.28-0.61c0.24-0.09,0.52,0.03,0.61,0.28
							C13.55,18.02,13.43,18.29,13.18,18.38z"/>
						<path class="st0" d="M30.95,19.97c-0.24,0.09-0.52-0.03-0.61-0.28c-0.09-0.24,0.03-0.52,0.28-0.61s0.52,0.03,0.61,0.28
							C31.32,19.6,31.2,19.88,30.95,19.97z"/>
						<path class="st0" d="M13.18,18.38c-0.24,0.09-0.52-0.03-0.61-0.28s0.03-0.52,0.28-0.61c0.24-0.09,0.52,0.03,0.61,0.28
							C13.55,18.02,13.43,18.29,13.18,18.38z"/>
						<path class="st0" d="M27.31,5.64c-0.24,0.09-0.52-0.03-0.61-0.28c-0.09-0.24,0.03-0.52,0.28-0.61
							c0.24-0.09,0.52,0.03,0.61,0.28C27.68,5.27,27.56,5.55,27.31,5.64z"/>
						<path class="st0" d="M27.31,5.64c-0.24,0.09-0.52-0.03-0.61-0.28c-0.09-0.24,0.03-0.52,0.28-0.61
							c0.24-0.09,0.52,0.03,0.61,0.28C27.68,5.27,27.56,5.55,27.31,5.64z"/>
						<path class="st0" d="M30.95,19.97c-0.24,0.09-0.52-0.03-0.61-0.28c-0.09-0.24,0.03-0.52,0.28-0.61s0.52,0.03,0.61,0.28
							C31.32,19.6,31.2,19.88,30.95,19.97z"/>
						<path class="st0" d="M44.8,14.33c-0.24,0.09-0.52-0.03-0.61-0.28c-0.09-0.24,0.03-0.52,0.28-0.61
							c0.24-0.09,0.52,0.03,0.61,0.28C45.17,13.97,45.04,14.24,44.8,14.33z"/>
						<path class="st0" d="M42.82,33.36c-0.24,0.09-0.52-0.03-0.61-0.28s0.03-0.52,0.28-0.61c0.24-0.09,0.52,0.03,0.61,0.28
							C43.19,33,43.06,33.27,42.82,33.36z"/>
						<path class="st0" d="M44.8,14.33c-0.24,0.09-0.52-0.03-0.61-0.28c-0.09-0.24,0.03-0.52,0.28-0.61
							c0.24-0.09,0.52,0.03,0.61,0.28C45.17,13.97,45.04,14.24,44.8,14.33z"/>
						<path class="st0" d="M53.56,28.23c-0.24,0.09-0.52-0.03-0.61-0.28c-0.09-0.24,0.03-0.52,0.28-0.61
							c0.24-0.09,0.52,0.03,0.61,0.28C53.93,27.87,53.8,28.14,53.56,28.23z"/>
						<path class="st0" d="M44.8,14.33c-0.24,0.09-0.52-0.03-0.61-0.28c-0.09-0.24,0.03-0.52,0.28-0.61
							c0.24-0.09,0.52,0.03,0.61,0.28C45.17,13.97,45.04,14.24,44.8,14.33z"/>
						<path class="st0" d="M42.82,33.36c-0.24,0.09-0.52-0.03-0.61-0.28s0.03-0.52,0.28-0.61c0.24-0.09,0.52,0.03,0.61,0.28
							C43.19,33,43.06,33.27,42.82,33.36z"/>
						<path class="st0" d="M30.95,19.97c-0.24,0.09-0.52-0.03-0.61-0.28c-0.09-0.24,0.03-0.52,0.28-0.61s0.52,0.03,0.61,0.28
							C31.32,19.6,31.2,19.88,30.95,19.97z"/>
						<path class="st0" d="M44.8,14.33c-0.24,0.09-0.52-0.03-0.61-0.28c-0.09-0.24,0.03-0.52,0.28-0.61
							c0.24-0.09,0.52,0.03,0.61,0.28C45.17,13.97,45.04,14.24,44.8,14.33z"/>
						<path class="st0" d="M39.17,3.71c-0.24,0.09-0.52-0.03-0.61-0.28c-0.09-0.24,0.03-0.52,0.28-0.61
							c0.24-0.09,0.52,0.03,0.61,0.28C39.54,3.35,39.41,3.62,39.17,3.71z"/>
						<path class="st0" d="M27.31,5.64c-0.24,0.09-0.52-0.03-0.61-0.28c-0.09-0.24,0.03-0.52,0.28-0.61
							c0.24-0.09,0.52,0.03,0.61,0.28C27.68,5.27,27.56,5.55,27.31,5.64z"/>
						<path class="st0" d="M39.17,3.71c-0.24,0.09-0.52-0.03-0.61-0.28c-0.09-0.24,0.03-0.52,0.28-0.61
							c0.24-0.09,0.52,0.03,0.61,0.28C39.54,3.35,39.41,3.62,39.17,3.71z"/>
						<path class="st0" d="M44.8,14.33c-0.24,0.09-0.52-0.03-0.61-0.28c-0.09-0.24,0.03-0.52,0.28-0.61
							c0.24-0.09,0.52,0.03,0.61,0.28C45.17,13.97,45.04,14.24,44.8,14.33z"/>
						<path class="st0" d="M50.37,14.22c-0.24,0.09-0.52-0.03-0.61-0.28c-0.09-0.24,0.03-0.52,0.28-0.61
							c0.24-0.09,0.52,0.03,0.61,0.28S50.61,14.13,50.37,14.22z"/>
						<path class="st0" d="M50.37,14.22c-0.24,0.09-0.52-0.03-0.61-0.28c-0.09-0.24,0.03-0.52,0.28-0.61
							c0.24-0.09,0.52,0.03,0.61,0.28S50.61,14.13,50.37,14.22z"/>
						<path class="st0" d="M44.8,14.33c-0.24,0.09-0.52-0.03-0.61-0.28c-0.09-0.24,0.03-0.52,0.28-0.61
							c0.24-0.09,0.52,0.03,0.61,0.28C45.17,13.97,45.04,14.24,44.8,14.33z"/>
						<path class="st0" d="M53.56,28.23c-0.24,0.09-0.52-0.03-0.61-0.28c-0.09-0.24,0.03-0.52,0.28-0.61
							c0.24-0.09,0.52,0.03,0.61,0.28C53.93,27.87,53.8,28.14,53.56,28.23z"/>
						<path class="st0" d="M53.56,28.23c-0.24,0.09-0.52-0.03-0.61-0.28c-0.09-0.24,0.03-0.52,0.28-0.61
							c0.24-0.09,0.52,0.03,0.61,0.28C53.93,27.87,53.8,28.14,53.56,28.23z"/>
						<path class="st0" d="M42.82,33.36c-0.24,0.09-0.52-0.03-0.61-0.28s0.03-0.52,0.28-0.61c0.24-0.09,0.52,0.03,0.61,0.28
							C43.19,33,43.06,33.27,42.82,33.36z"/>
						<path class="st0" d="M47.71,43.24c-0.24,0.09-0.52-0.03-0.61-0.28c-0.09-0.24,0.03-0.52,0.28-0.61
							c0.24-0.09,0.52,0.03,0.61,0.28C48.08,42.88,47.96,43.15,47.71,43.24z"/>
						<path class="st0" d="M47.71,43.24c-0.24,0.09-0.52-0.03-0.61-0.28c-0.09-0.24,0.03-0.52,0.28-0.61
							c0.24-0.09,0.52,0.03,0.61,0.28C48.08,42.88,47.96,43.15,47.71,43.24z"/>
						<path class="st0" d="M53.56,28.23c-0.24,0.09-0.52-0.03-0.61-0.28c-0.09-0.24,0.03-0.52,0.28-0.61
							c0.24-0.09,0.52,0.03,0.61,0.28C53.93,27.87,53.8,28.14,53.56,28.23z"/>
						<path class="st0" d="M50.71,39.7c-0.24,0.09-0.52-0.03-0.61-0.28c-0.09-0.24,0.03-0.52,0.28-0.61
							c0.24-0.09,0.52,0.03,0.61,0.28C51.08,39.34,50.95,39.61,50.71,39.7z"/>
						<path class="st0" d="M33.16,49.81c-0.24,0.09-0.52-0.03-0.61-0.28c-0.09-0.24,0.03-0.52,0.28-0.61
							c0.24-0.09,0.52,0.03,0.61,0.28C33.53,49.45,33.4,49.72,33.16,49.81z"/>
						<path class="st0" d="M47.71,43.24c-0.24,0.09-0.52-0.03-0.61-0.28c-0.09-0.24,0.03-0.52,0.28-0.61
							c0.24-0.09,0.52,0.03,0.61,0.28C48.08,42.88,47.96,43.15,47.71,43.24z"/>
						<path class="st0" d="M42.82,33.36c-0.24,0.09-0.52-0.03-0.61-0.28s0.03-0.52,0.28-0.61c0.24-0.09,0.52,0.03,0.61,0.28
							C43.19,33,43.06,33.27,42.82,33.36z"/>
						<path class="st0" d="M47.71,43.24c-0.24,0.09-0.52-0.03-0.61-0.28c-0.09-0.24,0.03-0.52,0.28-0.61
							c0.24-0.09,0.52,0.03,0.61,0.28C48.08,42.88,47.96,43.15,47.71,43.24z"/>
						<path class="st0" d="M33.16,49.81c-0.24,0.09-0.52-0.03-0.61-0.28c-0.09-0.24,0.03-0.52,0.28-0.61
							c0.24-0.09,0.52,0.03,0.61,0.28C33.53,49.45,33.4,49.72,33.16,49.81z"/>
						<path class="st0" d="M39.73,51.5c-0.24,0.09-0.52-0.03-0.61-0.28c-0.09-0.24,0.03-0.52,0.28-0.61
							c0.24-0.09,0.52,0.03,0.61,0.28C40.1,51.13,39.98,51.4,39.73,51.5z"/>
						<path class="st0" d="M39.73,51.5c-0.24,0.09-0.52-0.03-0.61-0.28c-0.09-0.24,0.03-0.52,0.28-0.61
							c0.24-0.09,0.52,0.03,0.61,0.28C40.1,51.13,39.98,51.4,39.73,51.5z"/>
						<path class="st0" d="M33.16,49.81c-0.24,0.09-0.52-0.03-0.61-0.28c-0.09-0.24,0.03-0.52,0.28-0.61
							c0.24-0.09,0.52,0.03,0.61,0.28C33.53,49.45,33.4,49.72,33.16,49.81z"/>
						<path class="st0" d="M23.26,54.61c-0.24,0.09-0.52-0.03-0.61-0.28c-0.09-0.24,0.03-0.52,0.28-0.61
							c0.24-0.09,0.52,0.03,0.61,0.28C23.63,54.24,23.51,54.51,23.26,54.61z"/>
						<path class="st0" d="M23.26,54.61c-0.24,0.09-0.52-0.03-0.61-0.28c-0.09-0.24,0.03-0.52,0.28-0.61
							c0.24-0.09,0.52,0.03,0.61,0.28C23.63,54.24,23.51,54.51,23.26,54.61z"/>
						<path class="st0" d="M33.16,49.81c-0.24,0.09-0.52-0.03-0.61-0.28c-0.09-0.24,0.03-0.52,0.28-0.61
							c0.24-0.09,0.52,0.03,0.61,0.28C33.53,49.45,33.4,49.72,33.16,49.81z"/>
						<path class="st0" d="M16.76,48.56c-0.24,0.09-0.52-0.03-0.61-0.28c-0.09-0.24,0.03-0.52,0.28-0.61
							c0.24-0.09,0.52,0.03,0.61,0.28C17.13,48.2,17,48.47,16.76,48.56z"/>
						<path class="st0" d="M16.76,48.56c-0.24,0.09-0.52-0.03-0.61-0.28c-0.09-0.24,0.03-0.52,0.28-0.61
							c0.24-0.09,0.52,0.03,0.61,0.28C17.13,48.2,17,48.47,16.76,48.56z"/>
						<path class="st0" d="M23.26,54.61c-0.24,0.09-0.52-0.03-0.61-0.28c-0.09-0.24,0.03-0.52,0.28-0.61
							c0.24-0.09,0.52,0.03,0.61,0.28C23.63,54.24,23.51,54.51,23.26,54.61z"/>
						<path class="st0" d="M8.09,46.77c-0.24,0.09-0.52-0.03-0.61-0.28c-0.09-0.24,0.03-0.52,0.28-0.61
							c0.24-0.09,0.52,0.03,0.61,0.28C8.46,46.41,8.34,46.68,8.09,46.77z"/>
						<path class="st0" d="M8.09,46.77c-0.24,0.09-0.52-0.03-0.61-0.28c-0.09-0.24,0.03-0.52,0.28-0.61
							c0.24-0.09,0.52,0.03,0.61,0.28C8.46,46.41,8.34,46.68,8.09,46.77z"/>
						<path class="st0" d="M5.57,35.65c-0.24,0.09-0.52-0.03-0.61-0.28C4.87,35.13,5,34.86,5.24,34.77
							c0.24-0.09,0.52,0.03,0.61,0.28C5.94,35.29,5.81,35.56,5.57,35.65z"/>
						<path class="st0" d="M0.64,31.8c-0.24,0.09-0.52-0.03-0.61-0.28c-0.09-0.24,0.03-0.52,0.28-0.61
							c0.24-0.09,0.52,0.03,0.61,0.28C1.01,31.44,0.88,31.71,0.64,31.8z"/>
						<path class="st0" d="M0.64,31.8c-0.24,0.09-0.52-0.03-0.61-0.28c-0.09-0.24,0.03-0.52,0.28-0.61
							c0.24-0.09,0.52,0.03,0.61,0.28C1.01,31.44,0.88,31.71,0.64,31.8z"/>
						<path class="st0" d="M5.57,35.65c-0.24,0.09-0.52-0.03-0.61-0.28C4.87,35.13,5,34.86,5.24,34.77
							c0.24-0.09,0.52,0.03,0.61,0.28C5.94,35.29,5.81,35.56,5.57,35.65z"/>
						<path class="st0" d="M2.42,20.51c-0.24,0.09-0.52-0.03-0.61-0.28c-0.09-0.24,0.03-0.52,0.28-0.61
							c0.24-0.09,0.52,0.03,0.61,0.28C2.79,20.14,2.66,20.41,2.42,20.51z"/>
						<path class="st0" d="M2.42,20.51c-0.24,0.09-0.52-0.03-0.61-0.28c-0.09-0.24,0.03-0.52,0.28-0.61
							c0.24-0.09,0.52,0.03,0.61,0.28C2.79,20.14,2.66,20.41,2.42,20.51z"/>
						<path class="st0" d="M5.57,35.65c-0.24,0.09-0.52-0.03-0.61-0.28C4.87,35.13,5,34.86,5.24,34.77
							c0.24-0.09,0.52,0.03,0.61,0.28C5.94,35.29,5.81,35.56,5.57,35.65z"/>
						<path class="st0" d="M13.18,18.38c-0.24,0.09-0.52-0.03-0.61-0.28s0.03-0.52,0.28-0.61c0.24-0.09,0.52,0.03,0.61,0.28
							C13.55,18.02,13.43,18.29,13.18,18.38z"/>
						<path class="st0" d="M11.15,6.86c-0.24,0.09-0.52-0.03-0.61-0.28c-0.09-0.24,0.03-0.52,0.28-0.61
							c0.24-0.09,0.52,0.03,0.61,0.28C11.52,6.5,11.4,6.77,11.15,6.86z"/>
						<path class="st0" d="M13.18,18.38c-0.24,0.09-0.52-0.03-0.61-0.28s0.03-0.52,0.28-0.61c0.24-0.09,0.52,0.03,0.61,0.28
							C13.55,18.02,13.43,18.29,13.18,18.38z"/>
						<path class="st0" d="M2.42,20.51c-0.24,0.09-0.52-0.03-0.61-0.28c-0.09-0.24,0.03-0.52,0.28-0.61
							c0.24-0.09,0.52,0.03,0.61,0.28C2.79,20.14,2.66,20.41,2.42,20.51z"/>
						<path class="st0" d="M2.42,20.51c-0.24,0.09-0.52-0.03-0.61-0.28c-0.09-0.24,0.03-0.52,0.28-0.61
							c0.24-0.09,0.52,0.03,0.61,0.28C2.79,20.14,2.66,20.41,2.42,20.51z"/>
						<path class="st0" d="M11.15,6.86c-0.24,0.09-0.52-0.03-0.61-0.28c-0.09-0.24,0.03-0.52,0.28-0.61
							c0.24-0.09,0.52,0.03,0.61,0.28C11.52,6.5,11.4,6.77,11.15,6.86z"/>
						<path class="st0" d="M3.82,16.01c-0.24,0.09-0.52-0.03-0.61-0.28c-0.09-0.24,0.03-0.52,0.28-0.61
							c0.24-0.09,0.52,0.03,0.61,0.28C4.19,15.65,4.07,15.92,3.82,16.01z"/>
						<path class="st0" d="M13.18,18.38c-0.24,0.09-0.52-0.03-0.61-0.28s0.03-0.52,0.28-0.61c0.24-0.09,0.52,0.03,0.61,0.28
							C13.55,18.02,13.43,18.29,13.18,18.38z"/>
						<path class="st0" d="M11.15,6.86c-0.24,0.09-0.52-0.03-0.61-0.28c-0.09-0.24,0.03-0.52,0.28-0.61
							c0.24-0.09,0.52,0.03,0.61,0.28C11.52,6.5,11.4,6.77,11.15,6.86z"/>
						<path class="st0" d="M27.31,5.64c-0.24,0.09-0.52-0.03-0.61-0.28c-0.09-0.24,0.03-0.52,0.28-0.61
							c0.24-0.09,0.52,0.03,0.61,0.28C27.68,5.27,27.56,5.55,27.31,5.64z"/>
						<path class="st0" d="M11.15,6.86c-0.24,0.09-0.52-0.03-0.61-0.28c-0.09-0.24,0.03-0.52,0.28-0.61
							c0.24-0.09,0.52,0.03,0.61,0.28C11.52,6.5,11.4,6.77,11.15,6.86z"/>
						<path class="st0" d="M27.31,5.64c-0.24,0.09-0.52-0.03-0.61-0.28c-0.09-0.24,0.03-0.52,0.28-0.61
							c0.24-0.09,0.52,0.03,0.61,0.28C27.68,5.27,27.56,5.55,27.31,5.64z"/>
						<path class="st0" d="M24.31,0.92c-0.24,0.09-0.52-0.03-0.61-0.28c-0.09-0.24,0.03-0.52,0.28-0.61
							c0.24-0.09,0.52,0.03,0.61,0.28C24.68,0.55,24.56,0.83,24.31,0.92z"/>
						<path class="st0" d="M24.31,0.92c-0.24,0.09-0.52-0.03-0.61-0.28c-0.09-0.24,0.03-0.52,0.28-0.61
							c0.24-0.09,0.52,0.03,0.61,0.28C24.68,0.55,24.56,0.83,24.31,0.92z"/>
						<path class="st0" d="M27.31,5.64c-0.24,0.09-0.52-0.03-0.61-0.28c-0.09-0.24,0.03-0.52,0.28-0.61
							c0.24-0.09,0.52,0.03,0.61,0.28C27.68,5.27,27.56,5.55,27.31,5.64z"/>
						<path class="st0" d="M39.17,3.71c-0.24,0.09-0.52-0.03-0.61-0.28c-0.09-0.24,0.03-0.52,0.28-0.61
							c0.24-0.09,0.52,0.03,0.61,0.28C39.54,3.35,39.41,3.62,39.17,3.71z"/>
					</g>
				</g>
			</g>
		</g>
	</g>
	
		<ellipse transform="matrix(0.1856 -0.9826 0.9826 0.1856 0.7766 28.9099)" class="st2" cx="17.83" cy="13.99" rx="0.86" ry="0.86"/>
	
		<ellipse transform="matrix(0.1856 -0.9826 0.9826 0.1856 6.1258 49.9066)" class="st2" cx="33.17" cy="21.26" rx="0.86" ry="0.86"/>
	
		<ellipse transform="matrix(0.1856 -0.9826 0.9826 0.1856 21.1704 40.0109)" class="st2" cx="34.72" cy="7.23" rx="0.86" ry="0.86"/>
</g>
</svg>
